<?xml version="1.0" encoding="UTF-8" standalone="no"?>
<svg viewBox="0 0 500 500" version="1.1" xmlns="http://www.w3.org/2000/svg" xmlns:xlink="http://www.w3.org/1999/xlink">
    <title>posib. logo</title>
    <defs></defs>
    <g id="posib" stroke="none" stroke-width="1" fill="none" fill-rule="evenodd">
        <g transform="translate(250.000000, 250.000000) rotate(-45.000000) translate(-250.000000, -250.000000) translate(21.000000, 21.000000)" fill="#000000">
            <path d="M228.500001,325.999952 C228.518513,325.999984 228.537031,326 228.555556,326 C236.162075,326 242.656223,323.301163 248.038194,317.903409 C253.420166,312.505655 256.111111,305.992462 256.111111,298.363636 C256.111111,293.325732 254.855337,288.719718 252.34375,284.545455 C249.832163,280.371191 246.495391,277.060618 242.333333,274.613636 L242.333333,256.909091 C242.333333,245.393882 246.351812,235.606101 254.388889,227.545455 C262.425966,219.484808 272.185128,215.454545 283.666667,215.454545 L283.666667,229.272727 L325,201.636364 L283.666667,174 L283.666667,187.818182 C271.180493,187.818182 259.663247,190.912848 249.114583,197.102273 C240.923267,201.908525 234.051778,208.038324 228.5,215.491788 C222.948222,208.038324 216.076733,201.908525 207.885417,197.102273 C197.336753,190.912848 185.819507,187.818182 173.333333,187.818182 L173.333333,174 L132,201.636364 L173.333333,229.272727 L173.333333,215.454545 C184.814872,215.454545 194.574034,219.484808 202.611111,227.545455 C210.648188,235.606101 214.666667,245.393882 214.666667,256.909091 L214.666667,274.613636 C210.504609,277.060618 207.167837,280.371191 204.65625,284.545455 C202.144663,288.719718 200.888889,293.325732 200.888889,298.363636 C200.888889,305.992462 203.579834,312.505655 208.961806,317.903409 C214.343777,323.301163 220.837925,326 228.444444,326 C228.462969,326 228.481486,325.999984 228.499997,325.999952 L228.500001,325.999952 Z M208.435845,368.949084 L88.0509156,248.564155 C82.5123451,243.025584 79.7431014,236.3376 79.7431014,228.5 C79.7431014,220.6624 82.5123451,213.974416 88.0509156,208.435845 L208.435845,88.0509156 C213.974416,82.5123451 220.6624,79.7431014 228.5,79.7431014 C236.3376,79.7431014 243.025584,82.5123451 248.564155,88.0509156 L368.949084,208.435845 C374.487655,213.974416 377.256899,220.6624 377.256899,228.5 C377.256899,236.3376 374.487655,243.025584 368.949084,248.564155 L248.564155,368.949084 C243.025584,374.487655 236.3376,377.256899 228.5,377.256899 C220.6624,377.256899 213.974416,374.487655 208.435845,368.949084 Z M228.890625,284 C232.755228,284 236.072903,285.348945 238.84375,288.046875 C241.614597,290.744805 243,294.06248 243,298 C243,301.93752 241.651055,305.255195 238.953125,307.953125 C236.255195,310.651055 232.93752,312 229,312 C225.06248,312 221.744805,310.614597 219.046875,307.84375 C216.348945,305.072903 215,301.755228 215,297.890625 C215,294.026022 216.348945,290.744805 219.046875,288.046875 C221.744805,285.348945 225.026022,284 228.890625,284 Z" transform="translate(229.000000, 229.000000) rotate(-315.000000) translate(-229.000000, -229.000000) "></path>
            <path d="M131.40625,409.078125 L136.71875,409.078125 L136.71875,379.109375 L133.21875,379.109375 L133.21875,370.546875 L147.34375,370.546875 L147.34375,371.015625 C148.343755,370.578123 149.364578,370.229168 150.40625,369.96875 C151.447922,369.708332 152.520828,369.578125 153.625,369.578125 C156.000012,369.578125 158.208323,370.026037 160.25,370.921875 C162.291677,371.817713 164.062493,373.036451 165.5625,374.578125 C167.062507,376.119799 168.234371,377.921865 169.078125,379.984375 C169.921879,382.046885 170.34375,384.234363 170.34375,386.546875 C170.34375,388.88022 169.932296,391.078115 169.109375,393.140625 C168.286454,395.203135 167.135424,396.999992 165.65625,398.53125 C164.177076,400.062508 162.411469,401.270829 160.359375,402.15625 C158.307281,403.041671 156.062512,403.484375 153.625,403.484375 C152.249993,403.484375 150.968756,403.354168 149.78125,403.09375 C148.593744,402.833332 147.447922,402.463544 146.34375,401.984375 L146.34375,409.078125 L152.53125,409.078125 L152.53125,417.640625 L131.40625,417.640625 L131.40625,409.078125 Z M146.34375,391.265625 C147.01042,392.32813 147.916661,393.192705 149.0625,393.859375 C150.208339,394.526045 151.499993,394.859375 152.9375,394.859375 C154.000005,394.859375 155.010412,394.656252 155.96875,394.25 C156.927088,393.843748 157.760413,393.270837 158.46875,392.53125 C159.177087,391.791663 159.739581,390.916672 160.15625,389.90625 C160.572919,388.895828 160.78125,387.796881 160.78125,386.609375 C160.78125,385.296868 160.578127,384.119797 160.171875,383.078125 C159.765623,382.036453 159.208337,381.156254 158.5,380.4375 C157.791663,379.718746 156.958338,379.166669 156,378.78125 C155.041662,378.395831 154.020839,378.203125 152.9375,378.203125 C151.624993,378.203125 150.395839,378.546872 149.25,379.234375 C148.104161,379.921878 147.135421,380.890619 146.34375,382.140625 L146.34375,391.265625 Z M174.5,386.609375 C174.5,384.255197 174.927079,382.046885 175.78125,379.984375 C176.635421,377.921865 177.822909,376.119799 179.34375,374.578125 C180.864591,373.036451 182.677073,371.817713 184.78125,370.921875 C186.885427,370.026037 189.197904,369.578125 191.71875,369.578125 C194.239596,369.578125 196.557281,370.026037 198.671875,370.921875 C200.786469,371.817713 202.604159,373.036451 204.125,374.578125 C205.645841,376.119799 206.828121,377.921865 207.671875,379.984375 C208.515629,382.046885 208.9375,384.255197 208.9375,386.609375 C208.9375,388.963553 208.526046,391.177073 207.703125,393.25 C206.880204,395.322927 205.713549,397.135409 204.203125,398.6875 C202.692701,400.239591 200.880219,401.463537 198.765625,402.359375 C196.651031,403.255213 194.302096,403.703125 191.71875,403.703125 C189.11457,403.703125 186.755219,403.255213 184.640625,402.359375 C182.526031,401.463537 180.718757,400.244799 179.21875,398.703125 C177.718743,397.161451 176.557296,395.354177 175.734375,393.28125 C174.911454,391.208323 174.5,388.984387 174.5,386.609375 Z M183.84375,386.609375 C183.84375,387.838548 184.052081,388.968745 184.46875,390 C184.885419,391.031255 185.453121,391.921871 186.171875,392.671875 C186.890629,393.421879 187.723954,394.005206 188.671875,394.421875 C189.619796,394.838544 190.635411,395.046875 191.71875,395.046875 C192.822922,395.046875 193.848954,394.843752 194.796875,394.4375 C195.744796,394.031248 196.567705,393.453129 197.265625,392.703125 C197.963545,391.953121 198.510415,391.062505 198.90625,390.03125 C199.302085,388.999995 199.5,387.859381 199.5,386.609375 C199.5,385.317702 199.302085,384.151047 198.90625,383.109375 C198.510415,382.067703 197.958337,381.182295 197.25,380.453125 C196.58333,379.723955 195.770838,379.171877 194.8125,378.796875 C193.916662,378.421873 192.937505,378.234375 191.875,378.234375 L191.703125,378.234375 L191.5625,378.234375 C190.562495,378.234375 189.604171,378.421873 188.6875,378.796875 C187.729162,379.171877 186.890629,379.723955 186.171875,380.453125 C185.453121,381.182295 184.885419,382.067703 184.46875,383.109375 C184.052081,384.151047 183.84375,385.317702 183.84375,386.609375 Z M212.875,400.859375 L212.875,392.171875 L221.71875,392.171875 L221.71875,392.359375 C221.739583,392.963545 221.927082,393.489581 222.28125,393.9375 C222.635418,394.385419 223.098955,394.765623 223.671875,395.078125 C224.244795,395.390627 224.89583,395.624999 225.625,395.78125 C226.35417,395.937501 227.124996,396.015625 227.9375,396.015625 C229.812509,396.015625 231.177079,395.770836 232.03125,395.28125 C232.885421,394.791664 233.3125,394.161462 233.3125,393.390625 C233.3125,392.786455 233.104169,392.270835 232.6875,391.84375 C232.270831,391.416665 231.531255,391.078126 230.46875,390.828125 L224.46875,389.546875 C220.697898,388.817705 217.854176,387.604175 215.9375,385.90625 C214.020824,384.208325 213.0625,382.026055 213.0625,379.359375 C213.0625,377.796867 213.42708,376.375006 214.15625,375.09375 C214.88542,373.812494 215.874994,372.718755 217.125,371.8125 C218.375006,370.906245 219.838533,370.203127 221.515625,369.703125 C223.192717,369.203123 224.989574,368.953125 226.90625,368.953125 C228.218757,368.953125 229.385412,369.031249 230.40625,369.1875 C231.427088,369.343751 232.343746,369.546874 233.15625,369.796875 C233.968754,370.046876 234.682289,370.343748 235.296875,370.6875 C235.911461,371.031252 236.458331,371.390623 236.9375,371.765625 L242.375,371.765625 L242.375,380.453125 L234.3125,380.453125 C234.3125,379.953123 234.151043,379.473961 233.828125,379.015625 C233.505207,378.557289 233.031253,378.156252 232.40625,377.8125 C231.781247,377.468748 231.01563,377.192709 230.109375,376.984375 C229.20312,376.776041 228.177089,376.671875 227.03125,376.671875 C226.593748,376.671875 226.125002,376.708333 225.625,376.78125 C225.124998,376.854167 224.66146,376.984374 224.234375,377.171875 C223.80729,377.359376 223.453126,377.614582 223.171875,377.9375 C222.890624,378.260418 222.75,378.671873 222.75,379.171875 C222.75,379.421876 222.786458,379.661457 222.859375,379.890625 C222.932292,380.119793 223.072916,380.338541 223.28125,380.546875 C223.489584,380.755209 223.77604,380.947916 224.140625,381.125 C224.50521,381.302084 224.979164,381.442708 225.5625,381.546875 L231.4375,382.703125 C233.562511,383.119794 235.343743,383.640622 236.78125,384.265625 C238.218757,384.890628 239.374996,385.619788 240.25,386.453125 C241.125004,387.286462 241.755206,388.213537 242.140625,389.234375 C242.526044,390.255213 242.71875,391.359369 242.71875,392.546875 C242.71875,394.401051 242.286463,396.026035 241.421875,397.421875 C240.557287,398.817715 239.421882,399.979162 238.015625,400.90625 C236.609368,401.833338 235.02605,402.531248 233.265625,403 C231.5052,403.468752 229.729176,403.703125 227.9375,403.703125 C226.770827,403.703125 225.713546,403.630209 224.765625,403.484375 C223.817704,403.338541 222.963545,403.140626 222.203125,402.890625 C221.442705,402.640624 220.765628,402.343752 220.171875,402 C219.578122,401.656248 219.031252,401.276044 218.53125,400.859375 L212.875,400.859375 Z M248.09375,402.921875 L248.09375,394.359375 L252.96875,394.359375 L252.96875,379.109375 L248.09375,379.109375 L248.09375,370.546875 L262.625,370.546875 L262.625,394.359375 L267.125,394.359375 L267.125,402.921875 L248.09375,402.921875 Z M252.46875,360.109375 C252.46875,359.338538 252.609374,358.614587 252.890625,357.9375 C253.171876,357.260413 253.562498,356.671877 254.0625,356.171875 C254.562502,355.671873 255.151038,355.276043 255.828125,354.984375 C256.505212,354.692707 257.239579,354.546875 258.03125,354.546875 C258.781254,354.546875 259.48958,354.692707 260.15625,354.984375 C260.82292,355.276043 261.406248,355.671873 261.90625,356.171875 C262.406252,356.671877 262.802082,357.260413 263.09375,357.9375 C263.385418,358.614587 263.53125,359.338538 263.53125,360.109375 C263.53125,360.880212 263.385418,361.604163 263.09375,362.28125 C262.802082,362.958337 262.406252,363.546873 261.90625,364.046875 C261.406248,364.546877 260.82292,364.942707 260.15625,365.234375 C259.48958,365.526043 258.781254,365.671875 258.03125,365.671875 C257.239579,365.671875 256.505212,365.526043 255.828125,365.234375 C255.151038,364.942707 254.562502,364.546877 254.0625,364.046875 C253.562498,363.546873 253.171876,362.958337 252.890625,362.28125 C252.609374,361.604163 252.46875,360.880212 252.46875,360.109375 Z M271.1875,362.859375 L271.1875,354.296875 L285.3125,354.296875 L285.3125,371.265625 C286.437506,370.723956 287.593744,370.307293 288.78125,370.015625 C289.968756,369.723957 291.187494,369.578125 292.4375,369.578125 C294.833345,369.578125 297.052073,370.026037 299.09375,370.921875 C301.135427,371.817713 302.895826,373.036451 304.375,374.578125 C305.854174,376.119799 307.015621,377.921865 307.859375,379.984375 C308.703129,382.046885 309.125,384.234363 309.125,386.546875 C309.125,388.88022 308.713546,391.078115 307.890625,393.140625 C307.067704,395.203135 305.916674,396.999992 304.4375,398.53125 C302.958326,400.062508 301.197927,401.270829 299.15625,402.15625 C297.114573,403.041671 294.875012,403.484375 292.4375,403.484375 C291.124993,403.484375 289.875006,403.359376 288.6875,403.109375 C287.499994,402.859374 286.375005,402.505211 285.3125,402.046875 L285.3125,402.921875 L275.71875,402.921875 L275.71875,362.859375 L271.1875,362.859375 Z M285.3125,391.515625 C285.97917,392.51563 286.869786,393.322914 287.984375,393.9375 C289.098964,394.552086 290.343743,394.859375 291.71875,394.859375 C292.781255,394.859375 293.791662,394.666669 294.75,394.28125 C295.708338,393.895831 296.546871,393.343754 297.265625,392.625 C297.984379,391.906246 298.552081,391.041672 298.96875,390.03125 C299.385419,389.020828 299.59375,387.880215 299.59375,386.609375 C299.59375,385.317702 299.385419,384.151047 298.96875,383.109375 C298.552081,382.067703 297.989587,381.182295 297.28125,380.453125 C296.572913,379.723955 295.744796,379.166669 294.796875,378.78125 C293.848954,378.395831 292.843755,378.203125 291.78125,378.203125 C290.406243,378.203125 289.17188,378.515622 288.078125,379.140625 C286.98437,379.765628 286.062504,380.661452 285.3125,381.828125 L285.3125,391.515625 Z M313.25,397.859375 C313.25,397.026038 313.40104,396.244795 313.703125,395.515625 C314.00521,394.786455 314.432289,394.140628 314.984375,393.578125 C315.536461,393.015622 316.187496,392.572918 316.9375,392.25 C317.687504,391.927082 318.489579,391.765625 319.34375,391.765625 C320.156254,391.765625 320.932288,391.927082 321.671875,392.25 C322.411462,392.572918 323.057289,393.010414 323.609375,393.5625 C324.161461,394.114586 324.593748,394.765621 324.90625,395.515625 C325.218752,396.265629 325.375,397.046871 325.375,397.859375 C325.375,398.692712 325.213543,399.484371 324.890625,400.234375 C324.567707,400.984379 324.135419,401.630206 323.59375,402.171875 C323.052081,402.713544 322.41667,403.145832 321.6875,403.46875 C320.95833,403.791668 320.177087,403.953125 319.34375,403.953125 C318.468746,403.953125 317.661462,403.791668 316.921875,403.46875 C316.182288,403.145832 315.536461,402.713544 314.984375,402.171875 C314.432289,401.630206 314.00521,400.989587 313.703125,400.25 C313.40104,399.510413 313.25,398.713546 313.25,397.859375 Z"></path>
        </g>
    </g>
</svg>
